<svg version="1.0" xmlns="http://www.w3.org/2000/svg"
 width="300.000000pt" height="388.000000pt" viewBox="0 0 300.000000 388.000000"
 preserveAspectRatio="xMidYMid meet">
<metadata>
Created by potrace 1.10, written by Peter Selinger 2001-2011
</metadata>
<g transform="translate(0.000000,388.000000) scale(0.100000,-0.100000)"
fill="#000000" stroke="none">
<path d="M1071 2316 c85 -15 127 -32 143 -58 26 -43 -34 -76 -319 -176 -297
-105 -361 -136 -390 -191 -14 -28 -13 -31 10 -59 67 -79 357 -148 745 -176
l75 -6 -110 23 c-61 13 -133 34 -160 47 -42 21 -50 30 -53 56 -2 25 3 37 24
53 31 24 112 50 163 52 20 1 -11 5 -69 10 -126 9 -249 33 -268 53 -8 8 -12 22
-9 30 8 20 51 21 107 1 225 -79 937 -92 1368 -24 40 7 71 13 69 16 -2 2 -82
-4 -178 -13 -297 -28 -704 -9 -873 40 -137 40 -158 139 -43 198 125 64 444
105 726 95 84 -3 152 -4 150 -2 -3 2 -65 11 -139 20 -183 23 -1093 33 -969 11z"/>
<path d="M2428 1973 c6 -2 18 -2 25 0 6 3 1 5 -13 5 -14 0 -19 -2 -12 -5z"/>
<path d="M1368 1643 c6 -2 18 -2 25 0 6 3 1 5 -13 5 -14 0 -19 -2 -12 -5z"/>
</g>
</svg> 